<svg viewBox="0 0 33 33" fill="none" xmlns="http://www.w3.org/2000/svg">
<path d="M16.2699 18.5381C15.5777 18.5381 14.901 18.3328 14.3255 17.9482C13.7499 17.5636 13.3013 17.017 13.0364 16.3775C12.7715 15.7379 12.7022 15.0342 12.8372 14.3553C12.9722 13.6763 13.3056 13.0527 13.7951 12.5632C14.2846 12.0737 14.9082 11.7404 15.5871 11.6053C16.2661 11.4703 16.9698 11.5396 17.6093 11.8045C18.2489 12.0694 18.7955 12.518 19.1801 13.0936C19.5647 13.6692 19.7699 14.3459 19.7699 15.0381C19.7667 15.9653 19.3968 16.8537 18.7412 17.5093C18.0855 18.165 17.1972 18.5348 16.2699 18.5381ZM17.8324 18.5381H14.7074C14.339 18.5381 13.9752 18.62 13.6423 18.7778C13.3094 18.9356 13.0157 19.1654 12.7824 19.4506C12.5436 19.7342 12.3723 20.0683 12.2814 20.4277C12.1904 20.7872 12.1822 21.1625 12.2574 21.5256L13.4574 27.5256C13.5724 28.0915 13.8787 28.6006 14.3249 28.9671C14.7711 29.3336 15.33 29.5353 15.9074 29.5381H16.6324C17.2099 29.5353 17.7688 29.3336 18.215 28.9671C18.6612 28.6006 18.9675 28.0915 19.0824 27.5256L20.2824 21.5256C20.3576 21.1625 20.3495 20.7872 20.2585 20.4277C20.1676 20.0683 19.9963 19.7342 19.7574 19.4506C19.5242 19.1654 19.2305 18.9356 18.8976 18.7778C18.5647 18.62 18.2009 18.5381 17.8324 18.5381ZM22.7949 19.0756C22.71 19.3201 22.7232 19.588 22.8318 19.8229C22.9403 20.0579 23.1357 20.2416 23.3769 20.3355C23.618 20.4294 23.8862 20.4261 24.1251 20.3264C24.3639 20.2266 24.5547 20.0381 24.6574 19.8006C25.0659 18.7615 25.2737 17.6545 25.2699 16.5381C25.2699 14.1511 24.3217 11.862 22.6339 10.1741C20.9461 8.4863 18.6569 7.53809 16.2699 7.53809C13.883 7.53809 11.5938 8.4863 9.90599 10.1741C8.21816 11.862 7.26995 14.1511 7.26995 16.5381C7.26499 17.6546 7.47287 18.7619 7.88245 19.8006C7.95505 19.9873 8.08204 20.1478 8.24697 20.2615C8.41189 20.3752 8.60715 20.4367 8.80745 20.4381C8.93217 20.4385 9.05562 20.4129 9.16995 20.3631C9.41643 20.268 9.61526 20.0792 9.72299 19.8379C9.83073 19.5967 9.83862 19.3226 9.74495 19.0756C9.33288 18.0148 9.18566 16.8695 9.31604 15.739C9.44641 14.6085 9.85046 13.5268 10.4932 12.5876C11.1359 11.6485 11.9979 10.8802 13.0045 10.3493C14.0111 9.81842 15.1319 9.54096 16.2699 9.54096C17.408 9.54096 18.5288 9.81842 19.5354 10.3493C20.542 10.8802 21.404 11.6485 22.0467 12.5876C22.6894 13.5268 23.0935 14.6085 23.2239 15.739C23.3542 16.8695 23.207 18.0148 22.7949 19.0756ZM16.2699 3.53809C13.4559 3.53536 10.717 4.44581 8.46456 6.13266C6.21216 7.81952 4.56792 10.1917 3.77886 12.8928C2.98979 15.594 3.0985 18.4782 4.08866 21.1123C5.07882 23.7464 6.89696 25.9881 9.26995 27.5006C9.49372 27.6448 9.76562 27.6942 10.0258 27.638C10.286 27.5817 10.5132 27.4244 10.6574 27.2006C10.8017 26.9768 10.8511 26.7049 10.7948 26.4447C10.7385 26.1845 10.5812 25.9573 10.3574 25.8131C8.35032 24.5337 6.81231 22.6379 5.97429 20.4101C5.13627 18.1823 5.04345 15.7428 5.70976 13.4578C6.37608 11.1728 7.76558 9.16555 9.66969 7.73739C11.5738 6.30922 13.8898 5.53719 16.2699 5.53719C18.6501 5.53719 20.9661 6.30922 22.8702 7.73739C24.7743 9.16555 26.1638 11.1728 26.8301 13.4578C27.4964 15.7428 27.4036 18.1823 26.5656 20.4101C25.7276 22.6379 24.1896 24.5337 22.1824 25.8131C22.0017 25.931 21.864 26.1042 21.7898 26.3068C21.7156 26.5094 21.709 26.7306 21.7709 26.9373C21.8327 27.1441 21.9598 27.3252 22.1331 27.4538C22.3064 27.5823 22.5167 27.6514 22.7324 27.6506C22.9215 27.6476 23.1067 27.596 23.2699 27.5006C25.6429 25.9881 27.4611 23.7464 28.4512 21.1123C29.4414 18.4782 29.5501 15.594 28.761 12.8928C27.972 10.1917 26.3277 7.81952 24.0753 6.13266C21.8229 4.44581 19.084 3.53536 16.2699 3.53809Z" fill="#685DC5"/>
</svg>
