<svg viewBox="0 0 16 16" fill="none" xmlns="http://www.w3.org/2000/svg">
<path d="M11.1243 6.3125C11.3952 6.0625 11.3952 5.625 11.1243 5.375C10.8743 5.10417 10.4368 5.10417 10.1868 5.375L7.99935 7.5625L5.79102 5.375C5.54102 5.10417 5.10352 5.10417 4.85352 5.375C4.58268 5.625 4.58268 6.0625 4.85352 6.3125L7.04102 8.5L4.85352 10.7083C4.58268 10.9583 4.58268 11.3958 4.85352 11.6458C5.10352 11.9167 5.54102 11.9167 5.79102 11.6458L7.99935 9.45833L10.1868 11.6458C10.4368 11.9167 10.8743 11.9167 11.1243 11.6458C11.3952 11.3958 11.3952 10.9583 11.1243 10.7083L8.93685 8.5L11.1243 6.3125Z" fill="white"/>
</svg>
