<svg viewBox="0 0 27 26" fill="none" xmlns="http://www.w3.org/2000/svg">
<path fill-rule="evenodd" clip-rule="evenodd" d="M26.2529 11.2939L25.358 12.1794C25.7854 12.2805 26.1712 12.5087 26.4634 12.8332C27.2325 13.7145 27.1674 15.0374 26.3155 15.8407L19.3203 22.7637C16.6526 25.4072 12.572 26.0618 9.19617 24.388C8.23117 23.9057 7.36299 23.2537 6.63409 22.464C6.13276 21.916 5.70665 21.305 5.36676 20.6469C4.41221 20.169 3.55421 19.5223 2.8352 18.7387C-0.313411 15.2291 -0.112394 9.89061 3.29144 6.62225L7.01585 2.93897C7.62171 2.33412 8.60139 2.3073 9.24014 2.87809C9.70932 3.30999 10.0075 3.89309 10.0812 4.52278L14.0126 0.634867C14.4171 0.232063 14.9681 0.00635769 15.5421 0.00819669C16.5436 0.00936802 17.4138 0.689135 17.6469 1.65237L18.6768 0.633844C19.0997 0.222686 19.672 -0.00312805 20.2649 0.00717356C20.8605 0.0202579 21.4239 0.277432 21.8203 0.717229C22.5894 1.59968 22.5253 2.92312 21.6745 3.72883L21.4924 3.9089C21.8428 3.99291 22.1659 4.16327 22.4318 4.4041L22.4788 4.35806C22.8987 3.94143 23.4735 3.71409 24.068 3.72948C24.6626 3.74486 25.2246 4.00162 25.6218 4.43939C26.3893 5.3232 26.3241 6.6462 25.4734 7.45202L25.2918 7.63107C25.7178 7.73122 26.1027 7.95751 26.3952 8.27973C27.1655 9.16209 27.103 10.4863 26.2529 11.2939ZM24.8516 5.12336C24.6447 4.8933 24.3502 4.75891 24.039 4.75247C23.7285 4.73863 23.4271 4.85775 23.2118 5.07937L23.0199 5.26916C23.0252 5.28423 23.0283 5.2998 23.0314 5.31539C23.0338 5.32732 23.0362 5.33926 23.0396 5.35101C23.0669 5.43801 23.0883 5.52671 23.1037 5.61651C23.1095 5.65061 23.1129 5.68438 23.1164 5.7186L23.1192 5.74543C23.1281 5.8304 23.1319 5.9158 23.1306 6.00121L23.1304 6.01976C23.13 6.05118 23.1297 6.08211 23.1275 6.11375C23.1106 6.36478 23.0511 6.6112 22.9516 6.84274C22.9461 6.85538 22.9401 6.86753 22.9341 6.87975L22.934 6.87984C22.9293 6.88935 22.9246 6.89889 22.9201 6.90873C22.8723 7.01041 22.8171 7.10854 22.7551 7.20237C22.7499 7.2101 22.7448 7.21793 22.7398 7.22577C22.7328 7.23659 22.7259 7.24745 22.7183 7.25813C22.6398 7.37178 22.5513 7.47842 22.454 7.57684L21.5617 8.4598C21.6665 8.4842 21.7692 8.51653 21.869 8.55649C22.0996 8.65099 22.3118 8.78465 22.4959 8.95142L23.2537 8.19993L24.7419 6.72866C25.1961 6.30368 25.2439 5.60489 24.8516 5.12336ZM3.6013 18.0502C0.825615 14.9439 1.0118 10.2279 4.02391 7.34511L7.74832 3.66182C7.86058 3.55077 8.01266 3.48807 8.17145 3.48738C8.30539 3.48532 8.43502 3.53421 8.53354 3.62397C8.86647 3.93169 9.05877 4.35992 9.06638 4.81052C9.07399 5.26113 8.89625 5.69547 8.57389 6.01401L5.07502 9.47425C4.94055 9.6027 4.88662 9.7929 4.93396 9.97176C4.9813 10.1506 5.12254 10.2903 5.3034 10.3371C5.48425 10.3839 5.67658 10.3306 5.80645 10.1976L9.30532 6.73737L14.743 1.35823C14.9537 1.14842 15.2405 1.03071 15.5396 1.03134C15.9976 1.03158 16.4104 1.30453 16.5856 1.72302C16.7609 2.14151 16.6641 2.62318 16.3403 2.94358L10.5137 8.7069C10.3792 8.83534 10.3253 9.02555 10.3726 9.20441C10.42 9.38327 10.5612 9.52295 10.7421 9.56976C10.9229 9.61658 11.1152 9.56324 11.2451 9.43026L17.0723 3.66694L19.4083 1.35721C19.6241 1.136 19.9254 1.01682 20.2359 1.02981C20.5474 1.03692 20.8419 1.17161 21.0491 1.40172C21.4419 1.88233 21.3946 2.58098 20.9405 3.00548L19.4543 4.47777L12.8461 11.0136C12.7116 11.142 12.6577 11.3322 12.705 11.5111C12.7524 11.6899 12.8936 11.8296 13.0745 11.8764C13.2553 11.9232 13.4476 11.8699 13.5775 11.7369L20.1858 5.20113C20.4019 4.9805 20.703 4.86158 21.0134 4.87424C21.325 4.88107 21.6197 5.01559 21.8271 5.24564C21.8739 5.29741 21.915 5.35401 21.9497 5.41445C21.9576 5.42779 21.9638 5.44244 21.9699 5.45673C21.9746 5.46766 21.9792 5.47837 21.9843 5.48812C22.0038 5.52529 22.0211 5.56355 22.0361 5.60271C22.0398 5.61353 22.0424 5.62473 22.0451 5.63596C22.0468 5.64331 22.0485 5.65068 22.0505 5.65796C22.065 5.70726 22.0759 5.75752 22.0831 5.80836C22.0831 5.81942 22.0845 5.83074 22.0858 5.84195L22.0858 5.84198L22.0873 5.85491C22.0928 5.91016 22.0942 5.96573 22.0914 6.02117C22.0914 6.03499 22.0914 6.04931 22.0878 6.06363C22.0829 6.12131 22.0739 6.17858 22.0609 6.23501L22.0516 6.27286C22.0354 6.33315 22.0146 6.39215 21.9895 6.44936L21.9856 6.45908C21.9835 6.46474 21.9813 6.47045 21.9786 6.47596C21.9155 6.61404 21.8279 6.73982 21.72 6.84735L19.5226 9.02101L15.1806 13.3146C14.9784 13.5143 14.9783 13.8383 15.1803 14.0382C15.3823 14.2381 15.7099 14.2382 15.912 14.0385L20.2447 9.75306C20.2485 9.75115 20.2522 9.74892 20.2556 9.74641C20.362 9.6416 20.4882 9.55851 20.627 9.50188C20.7593 9.45229 20.8993 9.42564 21.0408 9.4231C21.0478 9.4231 21.0548 9.42232 21.0618 9.42154C21.0698 9.42065 21.0778 9.41976 21.0858 9.42003C21.1625 9.42203 21.2387 9.43163 21.3134 9.44868C21.5374 9.50092 21.7398 9.61984 21.8933 9.78938C21.897 9.79331 21.8999 9.79738 21.9028 9.80145C21.9052 9.8048 21.9076 9.80814 21.9104 9.81138C22.0439 9.96765 22.1283 10.1592 22.153 10.3623V10.391C22.1587 10.4484 22.1601 10.5062 22.1571 10.5639C22.1571 10.577 22.1558 10.5902 22.1545 10.6034L22.153 10.6191C22.148 10.6673 22.1403 10.7151 22.1297 10.7624C22.124 10.788 22.1183 10.8135 22.1111 10.8386C22.0996 10.878 22.0862 10.9167 22.0707 10.9547L22.0676 10.9626C22.0568 10.9901 22.0462 11.0171 22.033 11.0437C22.0249 11.06 22.0148 11.0781 22.0047 11.0964C21.9966 11.1108 21.9885 11.1254 21.9812 11.1394C21.9647 11.1711 21.9455 11.2023 21.9238 11.232C21.9122 11.2478 21.8983 11.2637 21.8843 11.2795C21.8721 11.2933 21.8599 11.3072 21.8493 11.321C21.8266 11.3507 21.8085 11.3722 21.7847 11.3962L14.7885 18.3162C12.4746 20.5982 8.96092 21.1976 6.00767 19.8141C5.98593 19.8038 5.96388 19.7944 5.94184 19.785C5.91459 19.7734 5.88736 19.7619 5.86077 19.7486C5.00799 19.3253 4.2419 18.7495 3.6013 18.0502ZM18.5889 22.0399L25.5856 15.1173H25.5841C26.0382 14.6953 26.0861 13.9981 25.6937 13.5192C25.4866 13.2882 25.1916 13.1528 24.8795 13.1453C24.5691 13.1309 24.2674 13.2496 24.0519 13.4711L19.7099 17.7652C19.58 17.8982 19.3877 17.9515 19.2068 17.9047C19.0259 17.8579 18.8847 17.7182 18.8374 17.5394C18.79 17.3605 18.844 17.1703 18.9784 17.0419L23.3236 12.7467L25.5241 10.569C25.9765 10.1426 26.0216 9.44394 25.6275 8.96421C25.4197 8.73534 25.1253 8.60182 24.8144 8.59537C24.5042 8.58225 24.2031 8.70061 23.9867 8.92073L23.0856 9.81188C23.0993 9.85045 23.1078 9.89036 23.1163 9.93044C23.1207 9.95095 23.125 9.97151 23.1301 9.99195C23.1339 10.0071 23.1379 10.022 23.142 10.0369C23.1508 10.0693 23.1596 10.1017 23.1653 10.1367C23.1807 10.2307 23.1897 10.3255 23.1922 10.4206C23.1953 10.4432 23.1953 10.4657 23.1953 10.4887C23.1959 10.5941 23.1889 10.6994 23.1741 10.8038C23.1734 10.8081 23.1726 10.8124 23.1718 10.8166C23.1701 10.8259 23.1684 10.8351 23.1684 10.8442C23.1514 10.9526 23.1266 11.0596 23.0939 11.1645C23.0887 11.1803 23.083 11.1957 23.0779 11.211C23.0456 11.3106 23.0064 11.4079 22.9604 11.5021C22.9517 11.52 22.9414 11.5372 22.9311 11.5545C22.9244 11.5657 22.9176 11.577 22.9113 11.5886C22.8301 11.7508 22.7238 11.8996 22.5963 12.0295C22.5859 12.0414 22.5761 12.054 22.5663 12.0666C22.5512 12.086 22.536 12.1055 22.5182 12.1231L15.5225 19.0411C15.5149 19.0488 15.5067 19.0558 15.4985 19.0627C15.4921 19.0682 15.4857 19.0736 15.4796 19.0794C15.3114 19.2437 15.1366 19.3981 14.9581 19.5465L14.9581 19.5466C14.8919 19.6013 14.8257 19.656 14.758 19.7071C14.6048 19.8272 14.4483 19.9414 14.2883 20.0499C14.1983 20.1113 14.1077 20.1701 14.0162 20.2279C13.8672 20.321 13.7182 20.4105 13.563 20.4939C13.4575 20.5522 13.3489 20.6075 13.2428 20.6602C13.1368 20.7129 13.0292 20.7615 12.9216 20.809C12.7054 20.9057 12.4861 20.9922 12.2631 21.071C12.1881 21.0986 12.1131 21.1257 12.0371 21.1497C11.8881 21.1978 11.7381 21.2408 11.587 21.2812C11.527 21.2966 11.467 21.3109 11.4065 21.3252C11.0894 21.4025 10.7682 21.4621 10.4444 21.5038C10.4376 21.5047 10.4311 21.506 10.4248 21.5072C10.4139 21.5094 10.4035 21.5114 10.3926 21.5114C10.2235 21.5319 10.0538 21.5462 9.88312 21.557C9.87581 21.5574 9.86839 21.5579 9.86089 21.5584C9.81963 21.5612 9.77585 21.5641 9.73208 21.5641C9.68673 21.5663 9.64145 21.5693 9.59616 21.5722C9.50558 21.5782 9.41499 21.5841 9.32395 21.5841C8.5282 21.583 7.73633 21.4744 6.97033 21.2613C7.10517 21.4379 7.24845 21.6085 7.40019 21.7728C8.04346 22.4706 8.81002 23.0465 9.66225 23.4723C12.6389 24.9478 16.2367 24.3705 18.5889 22.0399Z" fill="#A3A3A3"/>
</svg>
