<svg width="16" height="16" viewBox="0 0 16 16" fill="none" xmlns="http://www.w3.org/2000/svg">
<path d="M1.59961 7.7C1.59961 4.175 4.44961 1.3 7.99961 1.3C11.5246 1.3 14.3996 4.175 14.3996 7.7C14.3996 11.25 11.5246 14.1 7.99961 14.1C4.44961 14.1 1.59961 11.25 1.59961 7.7ZM5.97461 6.525L7.14961 7.7L5.97461 8.875C5.72461 9.125 5.72461 9.5 5.97461 9.725C6.19961 9.975 6.57461 9.975 6.79961 9.725L7.97461 8.55L9.17461 9.725C9.39961 9.975 9.77461 9.975 9.99961 9.725C10.2496 9.5 10.2496 9.125 9.99961 8.875L8.82461 7.7L9.99961 6.525C10.2496 6.3 10.2496 5.925 9.99961 5.675C9.77461 5.45 9.39961 5.45 9.17461 5.675L7.97461 6.875L6.79961 5.675C6.57461 5.45 6.19961 5.45 5.97461 5.675C5.72461 5.925 5.72461 6.3 5.97461 6.525Z" fill="#A3A3A3"/>
</svg>
