<svg width="27" height="25" viewBox="0 0 27 25" fill="none" xmlns="http://www.w3.org/2000/svg">
<path d="M13 9.12402C13.2761 9.12402 13.5 8.90017 13.5 8.62402C13.5 8.34788 13.2761 8.12402 13 8.12402V9.12402ZM17.5 12.624C17.5 12.3479 17.2761 12.124 17 12.124C16.7239 12.124 16.5 12.3479 16.5 12.624H17.5ZM12.1464 12.7705C11.9512 12.9657 11.9512 13.2823 12.1464 13.4776C12.3417 13.6728 12.6583 13.6728 12.8536 13.4776L12.1464 12.7705ZM13 8.12402H9.2V9.12402H13V8.12402ZM8.5 8.82402V16.424H9.5V8.82402H8.5ZM9.2 17.124H16.8V16.124H9.2V17.124ZM17.5 16.424V12.624H16.5V16.424H17.5ZM12.8536 13.4776L17.3536 8.97758L16.6464 8.27047L12.1464 12.7705L12.8536 13.4776ZM16.8 17.124C17.1866 17.124 17.5 16.8106 17.5 16.424H16.5C16.5 16.2583 16.6343 16.124 16.8 16.124V17.124ZM8.5 16.424C8.5 16.8106 8.8134 17.124 9.2 17.124V16.124C9.36568 16.124 9.5 16.2583 9.5 16.424H8.5ZM9.2 8.12402C8.8134 8.12402 8.5 8.43742 8.5 8.82402H9.5C9.5 8.98971 9.36569 9.12402 9.2 9.12402V8.12402Z" fill="white"/>
<path d="M14.5 8.62402H16.8C16.9105 8.62402 17 8.71357 17 8.82402V11.124" stroke="white" stroke-linecap="round"/>
</svg>
