<svg viewBox="0 0 192 19" fill="none" xmlns="http://www.w3.org/2000/svg">
<path d="M0 17.8786V1.01465H2.8662V8.18625H9.83708V1.01465H12.7387V17.8786H9.83708V10.707H2.8662V17.8786H0Z" fill="#685DC5"/>
<path d="M20.4175 11.3105H25.0176L22.7529 4.88447L20.4175 11.3105ZM15.3574 17.8786V16.92L21.3729 1.01465H24.2037L30.2192 16.92V17.8786H27.3884L25.9022 13.7247H19.5329L18.0467 17.8786H15.3574Z" fill="#685DC5"/>
<path d="M35.7395 8.93181H39.5611C41.3303 8.93181 42.215 8.04424 42.215 6.23358C42.215 4.42293 41.3303 3.53536 39.5611 3.53536H35.7395V8.93181ZM32.8379 17.8786V1.01465H40.0565C43.3119 1.01465 45.1165 2.93181 45.1165 6.19808C45.1165 8.43477 44.0904 10.2099 42.1442 11.062L45.2935 16.92V17.8786H42.4627L38.9949 11.3815H35.7395V17.8786H32.8379Z" fill="#685DC5"/>
<path d="M51.591 15.3579H55.9788C57.5711 15.3579 58.385 14.5768 58.385 13.0502C58.385 11.4525 57.6065 10.6715 55.9788 10.6715H51.591V15.3579ZM51.591 8.25726H55.3065C56.8988 8.25726 57.6773 7.47619 57.6773 5.87856C57.6773 4.31643 56.8988 3.53536 55.3065 3.53536H51.591V8.25726ZM48.6895 17.8786V1.01465H55.7665C58.7742 1.01465 60.5789 2.54128 60.5789 5.55903C60.5789 7.26317 59.9066 8.43477 58.5619 9.14483C60.3312 9.78388 61.2158 11.133 61.2158 13.2277C61.2158 16.2809 59.4465 17.9141 56.4034 17.9141H48.6895V17.8786Z" fill="#685DC5"/>
<path d="M74.4506 6.58867C74.4506 4.6715 73.1414 3.32239 70.7352 3.32239C68.329 3.32239 67.0197 4.70701 67.0197 6.58867V12.3401C67.0197 14.2573 68.329 15.6064 70.7352 15.6064C73.1414 15.6064 74.4506 14.2218 74.4506 12.3401V6.58867ZM64.1182 6.73068C64.1182 2.96736 66.6659 0.659668 70.7352 0.659668C74.8045 0.659668 77.3522 2.93186 77.3522 6.73068V12.1626C77.3522 15.9615 74.8045 18.2336 70.7352 18.2336C66.6659 18.2336 64.1182 15.9615 64.1182 12.1626V6.73068Z" fill="#685DC5"/>
<path d="M90.7631 1.01465H93.6293V12.3756C93.6293 14.2218 93.0631 15.6419 91.8954 16.6715C90.7631 17.701 89.2062 18.1981 87.26 18.1981C85.3138 18.1981 83.7568 17.701 82.5891 16.6715C81.4568 15.6419 80.8906 14.1863 80.8906 12.3756V1.01465H83.7568V12.5176C83.7568 14.2928 84.9953 15.5709 87.2246 15.5709C89.4538 15.5709 90.6923 14.2573 90.6923 12.5176V1.01465H90.7631Z" fill="#685DC5"/>
<path d="M100.6 8.93181H104.421C106.19 8.93181 107.075 8.04424 107.075 6.23358C107.075 4.42293 106.19 3.53536 104.421 3.53536H100.6V8.93181ZM97.7334 17.8786V1.01465H104.952C108.207 1.01465 110.012 2.93181 110.012 6.19808C110.012 8.43477 108.986 10.2099 107.075 11.062L110.224 16.92V17.8786H107.394L103.926 11.3815H100.6V17.8786H97.7334Z" fill="#685DC5"/>
<path d="M120.84 16.7424C119.602 15.7128 119 14.2927 119 12.411H121.866C121.866 13.1921 122.079 13.8311 122.503 14.3282C123.352 15.3223 124.449 15.5708 125.688 15.5708C127.705 15.5708 128.837 14.6477 128.837 13.3696C128.837 12.766 128.589 12.3045 128.059 11.985C127.528 11.6655 126.572 11.2039 125.192 10.6714L124.98 10.6004L124.591 10.4583C122.751 9.74829 121.442 9.07373 120.663 8.43468C119.885 7.76012 119.495 6.80154 119.495 5.52343C119.495 4.06781 120.026 2.86071 121.088 1.97314C122.185 1.08556 123.671 0.624023 125.546 0.624023C129.332 0.624023 131.774 2.43468 131.774 6.3045H128.908C128.908 4.17432 127.457 3.25124 125.511 3.25124C123.6 3.25124 122.397 4.10332 122.397 5.31042C122.397 5.94947 122.645 6.48202 123.14 6.76604C123.635 7.08557 124.591 7.4761 126.006 8.00864L126.36 8.11515C127.28 8.43468 127.988 8.7187 128.519 8.96722C129.085 9.21574 129.616 9.53527 130.217 9.9258C131.385 10.7069 131.916 11.772 131.916 13.1921C131.916 16.1388 129.651 18.1625 125.546 18.1625C123.671 18.2335 122.114 17.7365 120.84 16.7424Z" fill="#685DC5"/>
<path d="M138.392 8.86081H142.284C143.593 8.86081 144.584 7.93773 144.584 6.19808C144.584 4.49394 143.593 3.53536 142.284 3.53536H138.392V8.86081ZM135.49 17.8786V1.01465H142.78C145.752 1.01465 147.521 3.00281 147.521 6.19808C147.521 9.39335 145.752 11.3815 142.78 11.3815H138.392V17.8786H135.49Z" fill="#685DC5"/>
<path d="M152.9 11.3105H157.5L155.236 4.88447L152.9 11.3105ZM147.875 17.8786V16.92L153.891 1.01465H156.722L162.737 16.92V17.8786H159.906L158.42 13.7247H152.086L150.565 17.8786H147.875Z" fill="#685DC5"/>
<path d="M164.86 12.1626V6.73068C164.86 2.86085 167.231 0.659668 171.406 0.659668C173.175 0.659668 174.662 1.15671 175.829 2.11529C176.997 3.10937 177.599 4.565 177.599 6.48216V6.73068H174.732V6.48216C174.732 5.45257 174.378 4.636 173.706 4.13896C172.998 3.57091 172.255 3.32239 171.406 3.32239C168.965 3.32239 167.797 4.49399 167.797 6.55316V12.3757C167.797 14.4348 169 15.6064 171.406 15.6064C172.255 15.6064 172.998 15.3579 173.706 14.8254C174.414 14.2573 174.732 13.4762 174.732 12.4467V12.1981H177.599V12.4467C177.599 14.3638 176.997 15.8194 175.829 16.8135C174.662 17.8076 173.175 18.2691 171.406 18.2691C167.266 18.2336 164.86 16.0325 164.86 12.1626Z" fill="#685DC5"/>
<path d="M181.208 17.8786V1.01465H191.965V3.53536H184.074V8.22175H190.868V10.636H184.074V15.3578H192V17.8786H181.208Z" fill="#685DC5"/>
<path d="M115.887 17.8784C115.887 18.2689 115.568 18.6239 115.143 18.6239C114.754 18.6239 114.4 18.3044 114.4 17.8784C114.4 17.4878 114.719 17.1328 115.143 17.1328C115.568 17.1683 115.887 17.4878 115.887 17.8784Z" fill="#685DC5"/>
</svg>
