<svg width="80" height="80" viewBox="0 0 80 80" fill="none" xmlns="http://www.w3.org/2000/svg">
<path d="M27 43.8002V36.2048C27 35.9287 27.2239 35.7048 27.5 35.7048H32.6451C32.7446 35.7048 32.8417 35.6752 32.9242 35.6197L40.6652 30.4127C40.9973 30.1893 41.4442 30.4273 41.4442 30.8276V49.1728C41.4442 49.573 40.9975 49.811 40.6653 49.5878L32.9242 44.3852C32.8417 44.3298 32.7446 44.3002 32.6453 44.3002H27.5C27.2239 44.3002 27 44.0764 27 43.8002Z" stroke="#685DC5" stroke-linecap="round" stroke-linejoin="round"/>
<path d="M49.4772 47.6318C52.5732 44.5548 52.9999 41.8283 52.9999 39.8696C52.9999 37.9108 52.4931 35.1706 49.4771 32.4231" stroke="#685DC5" stroke-linecap="round" stroke-linejoin="round"/>
<path d="M45.4874 45.9357C47.6688 43.5479 47.9695 41.4321 47.9695 39.9121C47.9695 38.3921 47.6124 36.2656 45.4873 34.1335" stroke="#685DC5" stroke-linecap="round" stroke-linejoin="round"/>
</svg>
