<svg width="80" height="80" viewBox="0 0 80 80" fill="none" xmlns="http://www.w3.org/2000/svg">
<rect width="80" height="80" fill="white"/>
<path fill-rule="evenodd" clip-rule="evenodd" d="M30.8806 53.9173C29.262 59.8693 23.8579 64 17.6897 64C7.28681 64 0.696186 52.842 5.71772 43.7314L17.9709 21.5001C19.841 18.1072 23.4084 16 27.2825 16C34.2901 16 39.3812 22.6606 37.5422 29.4225L30.8806 53.9173ZM68.9583 53.9173C67.3396 59.8693 61.9355 64 55.7674 64C45.3645 64 38.7738 52.842 43.7954 43.7314L56.0486 21.5001C57.9186 18.1072 61.4861 16 65.3602 16C72.3677 16 77.4588 22.6606 75.6199 29.4225L68.9583 53.9173Z" fill="#F0EFF9"/>
<path d="M30.8806 53.9173L31.3631 54.0486L30.8806 53.9173ZM5.71772 43.7314L6.15561 43.9727H6.15561L5.71772 43.7314ZM17.9709 21.5001L17.533 21.2587L17.9709 21.5001ZM37.5422 29.4225L38.0247 29.5537L37.5422 29.4225ZM68.9583 53.9173L68.4758 53.7861L68.9583 53.9173ZM43.7954 43.7314L43.3575 43.49L43.7954 43.7314ZM56.0486 21.5001L55.6107 21.2587L56.0486 21.5001ZM75.6199 29.4225L76.1024 29.5537L75.6199 29.4225ZM17.6897 64.5C24.0835 64.5 29.6852 60.2182 31.3631 54.0486L30.3982 53.7861C28.8387 59.5204 23.6323 63.5 17.6897 63.5V64.5ZM5.27982 43.49C0.074625 52.9339 6.90631 64.5 17.6897 64.5V63.5C7.66731 63.5 1.31775 52.7502 6.15561 43.9727L5.27982 43.49ZM17.533 21.2587L5.27982 43.49L6.15561 43.9727L18.4088 21.7414L17.533 21.2587ZM27.2825 15.5C23.2263 15.5 19.491 17.7063 17.533 21.2587L18.4088 21.7414C20.1909 18.5081 23.5906 16.5 27.2825 16.5V15.5ZM38.0247 29.5537C39.9501 22.4738 34.6196 15.5 27.2825 15.5V16.5C33.9605 16.5 38.8122 22.8474 37.0597 29.2913L38.0247 29.5537ZM31.3631 54.0486L38.0247 29.5537L37.0597 29.2913L30.3982 53.7861L31.3631 54.0486ZM55.7674 64.5C62.1611 64.5 67.7629 60.2182 69.4408 54.0486L68.4758 53.7861C66.9164 59.5204 61.7099 63.5 55.7674 63.5V64.5ZM43.3575 43.49C38.1523 52.9339 44.984 64.5 55.7674 64.5V63.5C45.745 63.5 39.3954 52.7502 44.2333 43.9727L43.3575 43.49ZM55.6107 21.2587L43.3575 43.49L44.2333 43.9727L56.4865 21.7414L55.6107 21.2587ZM65.3602 15.5C61.3039 15.5 57.5687 17.7063 55.6107 21.2587L56.4865 21.7414C58.2686 18.5081 61.6683 16.5 65.3602 16.5V15.5ZM76.1024 29.5537C78.0278 22.4738 72.6973 15.5 65.3602 15.5V16.5C72.0382 16.5 76.8899 22.8474 75.1374 29.2913L76.1024 29.5537ZM69.4408 54.0486L76.1024 29.5537L75.1374 29.2913L68.4758 53.7861L69.4408 54.0486Z" fill="#685DC5"/>
</svg>
