<svg width="24" height="24" viewBox="0 0 24 24" fill="none" xmlns="http://www.w3.org/2000/svg">
<path fill-rule="evenodd" clip-rule="evenodd" d="M4.70272 2C3.21069 2 2 3.20505 2 4.69012C2 6.17519 3.21069 7.40544 4.70272 7.40544C6.19475 7.40544 7.40544 6.17519 7.40544 4.69012C7.4045 3.20505 6.19381 2 4.70272 2ZM21.995 21.4596V21.4587H22V13.9277C22 10.2435 21.2246 7.40543 17.0143 7.40543C14.9903 7.40543 13.632 8.54167 13.0775 9.61888H13.019V7.74939H9.02692V21.4587H13.1837V14.6704C13.1837 12.883 13.5149 11.1547 15.6786 11.1547C17.8106 11.1547 17.8423 13.1944 17.8423 14.785V21.4596H21.995ZM6.86506 8.4866H2.54071V21.4596H6.86506V8.4866Z" fill="#685DC5"/>
</svg>
