<svg width="24" height="24" viewBox="0 0 24 24" fill="none" xmlns="http://www.w3.org/2000/svg">
<path d="M20.5576 2H3.44241C2.64575 2 2 2.64575 2 3.44241V20.5576C2 21.3542 2.64575 22 3.44241 22H12.6836V14.2656H10.0859V11.2383H12.6836V9.01035C12.6836 6.42673 14.2609 5.02048 16.5656 5.02048C17.6694 5.02048 18.618 5.10272 18.8945 5.1395V7.83984H17.3053C16.0514 7.83984 15.8086 8.4357 15.8086 9.31018V11.2383H18.8066L18.416 14.2656H15.8086V22H20.5576C21.3542 22 22 21.3542 22 20.5576V3.44241C22 2.64575 21.3542 2 20.5576 2Z" fill="#685DC5"/>
</svg>
