<svg viewBox="0 0 33 33" fill="none" xmlns="http://www.w3.org/2000/svg">
<path d="M24.1355 14.8024C19.8689 12.269 12.7355 12.0024 8.66888 13.269C8.00221 13.469 7.33555 13.069 7.13555 12.469C6.93555 11.8024 7.33555 11.1357 7.93555 10.9357C12.6689 9.5357 20.4689 9.80237 25.4022 12.7357C26.0022 13.069 26.2022 13.869 25.8689 14.469C25.5355 14.9357 24.7355 15.1357 24.1355 14.8024ZM24.0022 18.5357C23.6689 19.0024 23.0689 19.2024 22.6022 18.869C19.0022 16.669 13.5355 16.0024 9.33555 17.3357C8.80221 17.469 8.20221 17.2024 8.06888 16.669C7.93555 16.1357 8.20221 15.5357 8.73555 15.4024C13.6022 13.9357 19.6022 14.669 23.7355 17.2024C24.1355 17.4024 24.3355 18.069 24.0022 18.5357ZM22.4022 22.2024C22.1355 22.6024 21.6689 22.7357 21.2689 22.469C18.1355 20.5357 14.2022 20.1357 9.53555 21.2024C9.06888 21.3357 8.66888 21.0024 8.53555 20.6024C8.40221 20.1357 8.73555 19.7357 9.13555 19.6024C14.2022 18.469 18.6022 18.9357 22.0689 21.069C22.5355 21.269 22.6022 21.8024 22.4022 22.2024ZM16.2689 2.9357C14.5179 2.9357 12.7841 3.28058 11.1664 3.95064C9.54876 4.6207 8.0789 5.60283 6.84079 6.84094C4.3403 9.34143 2.93555 12.7328 2.93555 16.269C2.93555 19.8053 4.3403 23.1966 6.84079 25.6971C8.0789 26.9352 9.54876 27.9174 11.1664 28.5874C12.7841 29.2575 14.5179 29.6024 16.2689 29.6024C19.8051 29.6024 23.1965 28.1976 25.697 25.6971C28.1975 23.1966 29.6022 19.8053 29.6022 16.269C29.6022 14.5181 29.2573 12.7843 28.5873 11.1666C27.9172 9.54891 26.9351 8.07906 25.697 6.84094C24.4589 5.60283 22.989 4.6207 21.3713 3.95064C19.7537 3.28058 18.0198 2.9357 16.2689 2.9357Z" fill="#685DC5"/>
</svg>
