<svg width="88" height="88" viewBox="0 0 88 88" fill="none" xmlns="http://www.w3.org/2000/svg">
<path d="M0 44C0 19.6995 19.6995 0 44 0C68.3005 0 88 19.6995 88 44C88 68.3005 68.3005 88 44 88C19.6995 88 0 68.3005 0 44Z" fill="white"/>
<path fill-rule="evenodd" clip-rule="evenodd" d="M54.2529 44.2871L53.358 45.1726C53.7854 45.2737 54.1712 45.5018 54.4634 45.8264C55.2325 46.7076 55.1674 48.0306 54.3155 48.8339L47.3203 55.7569C44.6526 58.4003 40.572 59.055 37.1962 57.3811C36.2312 56.8989 35.363 56.2469 34.6341 55.4571C34.1328 54.9091 33.7066 54.2982 33.3668 53.64C32.4122 53.1621 31.5542 52.5154 30.8352 51.7319C27.6866 48.2222 27.8876 42.8838 31.2914 39.6154L35.0158 35.9321C35.6217 35.3273 36.6014 35.3005 37.2401 35.8713C37.7093 36.3031 38.0075 36.8863 38.0812 37.5159L42.0126 33.628C42.4171 33.2252 42.9681 32.9995 43.5421 33.0014C44.5436 33.0025 45.4138 33.6823 45.6469 34.6455L46.6768 33.627C47.0997 33.2158 47.672 32.99 48.2649 33.0003C48.8605 33.0134 49.4239 33.2706 49.8203 33.7104C50.5894 34.5928 50.5253 35.9163 49.6745 36.722L49.4924 36.9021C49.8428 36.9861 50.1659 37.1564 50.4318 37.3973L50.4788 37.3512C50.8987 36.9346 51.4735 36.7073 52.068 36.7226C52.6626 36.738 53.2246 36.9948 53.6218 37.4326C54.3893 38.3164 54.3241 39.6394 53.4734 40.4452L53.2918 40.6242C53.7178 40.7244 54.1027 40.9507 54.3952 41.2729C55.1655 42.1553 55.103 43.4795 54.2529 44.2871ZM52.8516 38.1165C52.6447 37.8865 52.3502 37.7521 52.039 37.7456C51.7285 37.7318 51.4271 37.8509 51.2118 38.0725L51.0199 38.2623C51.0252 38.2774 51.0283 38.293 51.0314 38.3086C51.0338 38.3205 51.0362 38.3324 51.0396 38.3442C51.0669 38.4312 51.0883 38.5199 51.1037 38.6097C51.1095 38.6438 51.1129 38.6775 51.1164 38.7118L51.1192 38.7386C51.1281 38.8236 51.1319 38.909 51.1306 38.9944L51.1304 39.0129C51.13 39.0443 51.1297 39.0753 51.1275 39.1069C51.1106 39.3579 51.0511 39.6044 50.9516 39.8359C50.9461 39.8485 50.9401 39.8607 50.9341 39.8729L50.934 39.873C50.9293 39.8825 50.9246 39.8921 50.9201 39.9019C50.8723 40.0036 50.8171 40.1017 50.7551 40.1955C50.7499 40.2033 50.7448 40.2111 50.7398 40.2189C50.7328 40.2298 50.7259 40.2406 50.7183 40.2513C50.6398 40.3649 50.5513 40.4716 50.454 40.57L49.5617 41.453C49.6665 41.4774 49.7692 41.5097 49.869 41.5497C50.0996 41.6442 50.3118 41.7778 50.4959 41.9446L51.2537 41.1931L52.7419 39.7218C53.1961 39.2968 53.2439 38.5981 52.8516 38.1165ZM31.6013 51.0433C28.8256 47.9371 29.0118 43.221 32.0239 40.3383L35.7483 36.655C35.8606 36.5439 36.0127 36.4812 36.1715 36.4805C36.3054 36.4785 36.435 36.5274 36.5335 36.6171C36.8665 36.9249 37.0588 37.3531 37.0664 37.8037C37.074 38.2543 36.8962 38.6886 36.5739 39.0072L33.075 42.4674C32.9406 42.5959 32.8866 42.7861 32.934 42.9649C32.9813 43.1438 33.1225 43.2835 33.3034 43.3303C33.4843 43.3771 33.6766 43.3238 33.8065 43.1908L37.3053 39.7305L42.743 34.3514C42.9537 34.1416 43.2405 34.0239 43.5396 34.0245C43.9976 34.0247 44.4104 34.2977 44.5856 34.7162C44.7609 35.1347 44.6641 35.6163 44.3403 35.9367L38.5137 41.7001C38.3792 41.8285 38.3253 42.0187 38.3726 42.1976C38.42 42.3764 38.5612 42.5161 38.7421 42.5629C38.9229 42.6097 39.1152 42.5564 39.2451 42.4234L45.0723 36.6601L47.4083 34.3504C47.6241 34.1292 47.9254 34.01 48.2359 34.023C48.5474 34.0301 48.8419 34.1648 49.0491 34.3949C49.4419 34.8755 49.3946 35.5741 48.9405 35.9986L47.4543 37.4709L40.8461 44.0067C40.7116 44.1352 40.6577 44.3254 40.705 44.5042C40.7524 44.6831 40.8936 44.8228 41.0745 44.8696C41.2553 44.9164 41.4476 44.8631 41.5775 44.7301L48.1858 38.1943C48.4019 37.9737 48.703 37.8547 49.0134 37.8674C49.325 37.8742 49.6197 38.0088 49.8271 38.2388C49.8739 38.2906 49.915 38.3472 49.9497 38.4076C49.9576 38.421 49.9638 38.4356 49.9699 38.4499C49.9746 38.4608 49.9792 38.4715 49.9843 38.4813C50.0038 38.5185 50.0211 38.5567 50.0361 38.5959C50.0398 38.6067 50.0424 38.6179 50.0451 38.6291C50.0468 38.6365 50.0485 38.6438 50.0505 38.6511C50.065 38.7004 50.0759 38.7507 50.0831 38.8015C50.0831 38.8126 50.0845 38.8239 50.0858 38.8351L50.0858 38.8351L50.0873 38.8481C50.0928 38.9033 50.0942 38.9589 50.0914 39.0143C50.0914 39.0281 50.0914 39.0425 50.0878 39.0568C50.0829 39.1145 50.0739 39.1717 50.0609 39.2282L50.0516 39.266C50.0354 39.3263 50.0146 39.3853 49.9895 39.4425L49.9856 39.4522C49.9835 39.4579 49.9813 39.4636 49.9786 39.4691C49.9155 39.6072 49.8279 39.733 49.72 39.8405L47.5226 42.0142L43.1806 46.3078C42.9784 46.5075 42.9783 46.8315 43.1803 47.0314C43.3823 47.2313 43.7099 47.2314 43.912 47.0316L48.2447 42.7462C48.2485 42.7443 48.2522 42.7421 48.2556 42.7396C48.362 42.6348 48.4882 42.5517 48.627 42.495C48.7593 42.4455 48.8993 42.4188 49.0408 42.4163C49.0478 42.4163 49.0548 42.4155 49.0618 42.4147C49.0698 42.4138 49.0778 42.4129 49.0858 42.4132C49.1625 42.4152 49.2387 42.4248 49.3134 42.4418C49.5374 42.4941 49.7398 42.613 49.8933 42.7825C49.897 42.7865 49.8999 42.7905 49.9028 42.7946C49.9052 42.798 49.9076 42.8013 49.9104 42.8045C50.0439 42.9608 50.1283 43.1524 50.153 43.3555V43.3841C50.1587 43.4416 50.1601 43.4994 50.1571 43.5571C50.1571 43.5702 50.1558 43.5834 50.1545 43.5965L50.153 43.6123C50.148 43.6605 50.1403 43.7083 50.1297 43.7555C50.124 43.7811 50.1183 43.8067 50.1111 43.8318C50.0996 43.8711 50.0862 43.9099 50.0707 43.9479L50.0676 43.9557C50.0568 43.9832 50.0462 44.0103 50.033 44.0369C50.0249 44.0532 50.0148 44.0712 50.0047 44.0895C49.9966 44.104 49.9885 44.1186 49.9812 44.1326C49.9647 44.1643 49.9455 44.1955 49.9238 44.2252C49.9122 44.241 49.8983 44.2568 49.8843 44.2726C49.8721 44.2865 49.8599 44.3003 49.8493 44.3142C49.8266 44.3438 49.8085 44.3653 49.7847 44.3894L42.7885 51.3094C40.4746 53.5914 36.9609 54.1908 34.0077 52.8072C33.9859 52.7969 33.9639 52.7876 33.9418 52.7782C33.9146 52.7666 33.8874 52.755 33.8608 52.7417C33.008 52.3185 32.2419 51.7426 31.6013 51.0433ZM46.5889 55.033L53.5856 48.1105H53.5841C54.0382 47.6884 54.0861 46.9913 53.6937 46.5124C53.4866 46.2814 53.1916 46.146 52.8795 46.1384C52.5691 46.124 52.2674 46.2428 52.0519 46.4643L47.7099 50.7584C47.58 50.8914 47.3877 50.9447 47.2068 50.8979C47.0259 50.8511 46.8847 50.7114 46.8374 50.5325C46.79 50.3537 46.844 50.1635 46.9784 50.035L51.3236 45.7399L53.5241 43.5622C53.9765 43.1358 54.0216 42.4371 53.6275 41.9574C53.4197 41.7285 53.1253 41.595 52.8144 41.5885C52.5042 41.5754 52.2031 41.6938 51.9867 41.9139L51.0856 42.805C51.0993 42.8436 51.1078 42.8835 51.1163 42.9236C51.1207 42.9441 51.125 42.9647 51.1301 42.9851C51.1339 43.0003 51.1379 43.0152 51.142 43.0301C51.1508 43.0625 51.1596 43.0949 51.1653 43.1299C51.1807 43.2238 51.1897 43.3187 51.1922 43.4138C51.1953 43.4363 51.1953 43.4588 51.1953 43.4818C51.1959 43.5873 51.1889 43.6926 51.1741 43.797C51.1734 43.8013 51.1726 43.8056 51.1718 43.8098C51.1701 43.8191 51.1684 43.8282 51.1684 43.8374C51.1514 43.9458 51.1266 44.0528 51.0939 44.1576C51.0887 44.1735 51.083 44.1888 51.0779 44.2042C51.0456 44.3038 51.0064 44.4011 50.9604 44.4953C50.9517 44.5132 50.9414 44.5304 50.9311 44.5476C50.9244 44.5589 50.9176 44.5702 50.9113 44.5817C50.8301 44.744 50.7238 44.8928 50.5963 45.0227C50.5859 45.0346 50.5761 45.0472 50.5663 45.0598C50.5512 45.0791 50.536 45.0987 50.5182 45.1163L43.5225 52.0342C43.5149 52.042 43.5067 52.0489 43.4985 52.0559C43.4921 52.0613 43.4857 52.0668 43.4796 52.0726C43.3114 52.2368 43.1366 52.3913 42.9581 52.5397L42.9581 52.5397C42.8919 52.5944 42.8257 52.6492 42.758 52.7003C42.6048 52.8203 42.4483 52.9346 42.2883 53.043C42.1983 53.1044 42.1077 53.1633 42.0162 53.2211C41.8672 53.3142 41.7182 53.4037 41.563 53.4871C41.4575 53.5454 41.3489 53.6007 41.2428 53.6533C41.1368 53.706 41.0292 53.7546 40.9216 53.8022C40.7054 53.8989 40.4861 53.9854 40.2631 54.0641C40.1881 54.0918 40.1131 54.1189 40.0371 54.1429C39.8881 54.191 39.7381 54.234 39.587 54.2744C39.527 54.2897 39.467 54.3041 39.4065 54.3184C39.0894 54.3957 38.7682 54.4553 38.4444 54.4969C38.4376 54.4979 38.4311 54.4991 38.4248 54.5004C38.4139 54.5025 38.4035 54.5046 38.3926 54.5046C38.2235 54.5251 38.0538 54.5394 37.8831 54.5501C37.8758 54.5506 37.8684 54.5511 37.8609 54.5516C37.8196 54.5544 37.7759 54.5573 37.7321 54.5573C37.6867 54.5595 37.6414 54.5625 37.5962 54.5654C37.5056 54.5713 37.415 54.5772 37.3239 54.5772C36.5282 54.5762 35.7363 54.4676 34.9703 54.2544C35.1052 54.4311 35.2485 54.6016 35.4002 54.766C36.0435 55.4638 36.81 56.0397 37.6622 56.4654C40.6389 57.941 44.2367 57.3636 46.5889 55.033Z" fill="#A3A3A3"/>
<path d="M55.1608 32.8393C55.3752 33.0537 55.7229 33.0537 55.9373 32.8393L59.2323 29.5443C59.3751 29.4064 59.4323 29.2022 59.3821 29.0102C59.3318 28.8182 59.1819 28.6683 58.9899 28.618C58.7979 28.5678 58.5937 28.625 58.4558 28.7678L55.1608 32.0628C54.9464 32.2772 54.9464 32.6249 55.1608 32.8393Z" fill="#A3A3A3"/>
<path d="M59.3552 32.4194C59.2934 32.2161 59.1726 32.0534 59.0193 31.967C58.8661 31.8807 58.693 31.8778 58.5382 31.9591L55.3959 33.6089C55.1158 33.7554 54.9544 34.1424 55.0114 34.531C55.0683 34.9197 55.3276 35.2005 55.6291 35.2001C55.709 35.2002 55.7882 35.1801 55.8622 35.1408L59.0045 33.4909C59.3267 33.322 59.4836 32.8424 59.3552 32.4194Z" fill="#A3A3A3"/>
<path d="M53.2199 32.9368C53.3977 33.0098 53.6025 33.0201 53.7893 32.9655C53.9761 32.9109 54.1296 32.7959 54.2158 32.6458L56.0253 29.5032C56.1415 29.3011 56.121 29.062 55.9717 28.8761C55.8223 28.6902 55.5667 28.5856 55.3012 28.6017C55.0357 28.6179 54.8006 28.7524 54.6844 28.9544L52.875 32.0965C52.7885 32.2465 52.7763 32.4194 52.841 32.577C52.9057 32.7346 53.042 32.8641 53.2199 32.9368Z" fill="#A3A3A3"/>
</svg>
